<svg width="16" height="16" viewBox="0 0 16 16" fill="none" xmlns="http://www.w3.org/2000/svg">
<g clip-path="url(#clip0_2490_3296)">
<g clip-path="url(#clip1_2490_3296)">
<path d="M15.4839 2.86102e-05H8.25806L0.28125 8.55706V15.6693H15.4839L16 15.2V13.7143L15.6641 13.2192V11.8145L16 11.4286V9.14286L15.6979 8.69428V7.25729L16 6.85709V4.57142L15.6979 4.15733V2.89795L16 2.28575V0.800024C16 0.358176 15.7689 2.86102e-05 15.4839 2.86102e-05Z" fill="#E5646E"/>
<path d="M8.01038 2.28574H16V4.57146H8.01038V2.28574Z" fill="#F5F5F5"/>
<path d="M8 6.8571L8.25806 9.14282H16V6.8571H8Z" fill="#F5F5F5"/>
<path d="M0.516125 12.8001V8.72662L0 9.14289V11.4286L0.21875 11.7176V13.2192L0 13.7143V15.2001C0 15.6419 0.231094 16.0001 0.516125 16.0001H15.4839C15.7689 16.0001 16 15.6419 16 15.2001H2.06453C1.20938 15.2001 0.516125 14.1256 0.516125 12.8001Z" fill="#DB4655"/>
<path d="M8.25806 2.86102e-05H0.516125L0.1875 0.800024L0.516125 9.14286H8.25806V2.86102e-05Z" fill="#5055A0"/>
<path d="M0.516125 2.86102e-05C0.231094 2.86102e-05 0 0.358176 0 0.800024V9.14286H0.516125V2.86102e-05Z" fill="#3F3F8F"/>
<path d="M1.03483 1.78341C0.892169 1.78341 0.775513 1.60429 0.775513 1.38341C0.775513 1.16253 0.889669 0.983412 1.03233 0.983412H1.03486C1.17751 0.983412 1.29292 1.16253 1.29292 1.38341C1.29292 1.60429 1.17745 1.78341 1.03483 1.78341Z" fill="white"/>
<path d="M1.03483 4.98344C0.892169 4.98344 0.775513 4.80432 0.775513 4.58344C0.775513 4.36257 0.889669 4.18344 1.03233 4.18344H1.03486C1.17751 4.18344 1.29292 4.36257 1.29292 4.58344C1.29292 4.80432 1.17745 4.98344 1.03483 4.98344Z" fill="white"/>
<path d="M1.03483 8.18343C0.892169 8.18343 0.775513 8.0043 0.775513 7.78342C0.775513 7.56254 0.889669 7.38342 1.03233 7.38342H1.03486C1.17751 7.38342 1.29292 7.56254 1.29292 7.78342C1.29292 8.0043 1.17745 8.18343 1.03483 8.18343Z" fill="white"/>
<path d="M1.03483 3.38342C0.892169 3.38342 0.775513 3.2043 0.775513 2.98343C0.775513 2.76255 0.889669 2.58343 1.03233 2.58343H1.03486C1.17751 2.58343 1.29292 2.76255 1.29292 2.98343C1.29289 3.2043 1.17745 3.38342 1.03483 3.38342Z" fill="#F5F5F5"/>
<path d="M1.03483 6.5834C0.892169 6.5834 0.775513 6.40427 0.775513 6.1834C0.775513 5.96252 0.889669 5.7834 1.03233 5.7834H1.03486C1.17751 5.7834 1.29292 5.96252 1.29292 6.1834C1.29292 6.40427 1.17745 6.5834 1.03483 6.5834Z" fill="#F5F5F5"/>
<path d="M7.22831 1.78341C7.08565 1.78341 6.96899 1.60429 6.96899 1.38341C6.96899 1.16253 7.08315 0.983412 7.22581 0.983412H7.22834C7.37099 0.983412 7.4864 1.16253 7.4864 1.38341C7.4864 1.60429 7.37096 1.78341 7.22831 1.78341Z" fill="white"/>
<path d="M7.22831 4.98344C7.08565 4.98344 6.96899 4.80432 6.96899 4.58344C6.96899 4.36257 7.08315 4.18344 7.22581 4.18344H7.22834C7.37099 4.18344 7.4864 4.36257 7.4864 4.58344C7.4864 4.80432 7.37096 4.98344 7.22831 4.98344Z" fill="white"/>
<path d="M7.22831 8.18343C7.08565 8.18343 6.96899 8.0043 6.96899 7.78342C6.96899 7.56254 7.08315 7.38342 7.22581 7.38342H7.22834C7.37099 7.38342 7.4864 7.56254 7.4864 7.78342C7.4864 8.0043 7.37096 8.18343 7.22831 8.18343Z" fill="white"/>
<path d="M7.22831 3.38341C7.08565 3.38341 6.96899 3.20429 6.96899 2.98341C6.96899 2.76254 7.08315 2.58341 7.22581 2.58341H7.22834C7.37099 2.58341 7.4864 2.76254 7.4864 2.98341C7.4864 3.20429 7.37096 3.38341 7.22831 3.38341Z" fill="#F5F5F5"/>
<path d="M7.22831 6.58338C7.08565 6.58338 6.96899 6.40426 6.96899 6.18338C6.96899 5.96251 7.08315 5.78339 7.22581 5.78339H7.22834C7.37099 5.78339 7.4864 5.96251 7.4864 6.18338C7.4864 6.40426 7.37096 6.58338 7.22831 6.58338Z" fill="#F5F5F5"/>
<path d="M2.58317 1.78341C2.44051 1.78341 2.32385 1.60429 2.32385 1.38341C2.32385 1.16253 2.43801 0.983412 2.58067 0.983412H2.5832C2.72585 0.983412 2.84126 1.16253 2.84126 1.38341C2.84126 1.60429 2.72582 1.78341 2.58317 1.78341Z" fill="#F5F5F5"/>
<path d="M2.58317 4.98343C2.44051 4.98343 2.32385 4.8043 2.32385 4.58343C2.32385 4.36255 2.43801 4.18343 2.58067 4.18343H2.5832C2.72585 4.18343 2.84126 4.36255 2.84126 4.58343C2.84126 4.8043 2.72582 4.98343 2.58317 4.98343Z" fill="#F5F5F5"/>
<path d="M2.58317 8.18341C2.44051 8.18341 2.32385 8.00428 2.32385 7.7834C2.32385 7.56253 2.43801 7.3834 2.58067 7.3834H2.5832C2.72585 7.3834 2.84126 7.56253 2.84126 7.7834C2.84126 8.00428 2.72582 8.18341 2.58317 8.18341Z" fill="#F5F5F5"/>
<path d="M2.58317 3.38342C2.44051 3.38342 2.32385 3.2043 2.32385 2.98343C2.32385 2.76255 2.43801 2.58343 2.58067 2.58343H2.5832C2.72585 2.58343 2.84126 2.76255 2.84126 2.98343C2.84123 3.2043 2.72582 3.38342 2.58317 3.38342Z" fill="white"/>
<path d="M2.58317 6.5834C2.44051 6.5834 2.32385 6.40427 2.32385 6.1834C2.32385 5.96252 2.43801 5.7834 2.58067 5.7834H2.5832C2.72585 5.7834 2.84126 5.96252 2.84126 6.1834C2.84126 6.40427 2.72582 6.5834 2.58317 6.5834Z" fill="white"/>
<path d="M1.80899 2.58339C1.66634 2.58339 1.54968 2.40426 1.54968 2.18339C1.54968 1.96251 1.66384 1.78339 1.80649 1.78339H1.80903C1.95168 1.78339 2.06709 1.96251 2.06709 2.18339C2.06706 2.40431 1.95165 2.58339 1.80899 2.58339Z" fill="white"/>
<path d="M1.80899 5.78342C1.66634 5.78342 1.54968 5.60429 1.54968 5.38342C1.54968 5.16254 1.66384 4.98342 1.80649 4.98342H1.80903C1.95168 4.98342 2.06709 5.16254 2.06709 5.38342C2.06709 5.60429 1.95165 5.78342 1.80899 5.78342Z" fill="white"/>
<path d="M1.80899 4.1834C1.66634 4.1834 1.54968 4.00428 1.54968 3.7834C1.54968 3.56253 1.66384 3.38341 1.80649 3.38341H1.80903C1.95168 3.38341 2.06709 3.56253 2.06709 3.7834C2.06709 4.00428 1.95165 4.1834 1.80899 4.1834Z" fill="#F5F5F5"/>
<path d="M1.80899 7.38343C1.66634 7.38343 1.54968 7.20431 1.54968 6.98344C1.54968 6.76256 1.66384 6.58344 1.80649 6.58344H1.80903C1.95168 6.58344 2.06709 6.76256 2.06709 6.98344C2.06709 7.20431 1.95165 7.38343 1.80899 7.38343Z" fill="#F5F5F5"/>
<path d="M4.13163 1.78341C3.98897 1.78341 3.87231 1.60429 3.87231 1.38341C3.87231 1.16253 3.98647 0.983412 4.12913 0.983412H4.13166C4.27431 0.983412 4.38972 1.16253 4.38972 1.38341C4.38972 1.60429 4.27425 1.78341 4.13163 1.78341Z" fill="white"/>
<path d="M4.13163 4.98344C3.98897 4.98344 3.87231 4.80432 3.87231 4.58344C3.87231 4.36257 3.98647 4.18344 4.12913 4.18344H4.13166C4.27431 4.18344 4.38972 4.36257 4.38972 4.58344C4.38972 4.80432 4.27425 4.98344 4.13163 4.98344Z" fill="white"/>
<path d="M4.13163 8.18343C3.98897 8.18343 3.87231 8.0043 3.87231 7.78342C3.87231 7.56254 3.98647 7.38342 4.12913 7.38342H4.13166C4.27431 7.38342 4.38972 7.56254 4.38972 7.78342C4.38972 8.0043 4.27425 8.18343 4.13163 8.18343Z" fill="white"/>
<path d="M4.13163 3.38342C3.98897 3.38342 3.87231 3.2043 3.87231 2.98343C3.87231 2.76255 3.98647 2.58343 4.12913 2.58343H4.13166C4.27431 2.58343 4.38972 2.76255 4.38972 2.98343C4.38969 3.2043 4.27425 3.38342 4.13163 3.38342Z" fill="#F5F5F5"/>
<path d="M4.13163 6.5834C3.98897 6.5834 3.87231 6.40427 3.87231 6.1834C3.87231 5.96252 3.98647 5.7834 4.12913 5.7834H4.13166C4.27431 5.7834 4.38972 5.96252 4.38972 6.1834C4.38972 6.40427 4.27425 6.5834 4.13163 6.5834Z" fill="#F5F5F5"/>
<path d="M3.35733 2.58339C3.21468 2.58339 3.09802 2.40426 3.09802 2.18339C3.09802 1.96251 3.21218 1.78339 3.35483 1.78339H3.35737C3.50002 1.78339 3.61543 1.96251 3.61543 2.18339C3.61543 2.40431 3.49999 2.58339 3.35733 2.58339Z" fill="#F5F5F5"/>
<path d="M3.35733 5.78342C3.21468 5.78342 3.09802 5.60429 3.09802 5.38342C3.09802 5.16254 3.21218 4.98342 3.35483 4.98342H3.35737C3.50002 4.98342 3.61543 5.16254 3.61543 5.38342C3.61543 5.60429 3.49999 5.78342 3.35733 5.78342Z" fill="#F5F5F5"/>
<path d="M3.35733 4.1834C3.21468 4.1834 3.09802 4.00428 3.09802 3.7834C3.09802 3.56253 3.21218 3.38341 3.35483 3.38341H3.35737C3.50002 3.38341 3.61543 3.56253 3.61543 3.7834C3.61543 4.00428 3.49999 4.1834 3.35733 4.1834Z" fill="white"/>
<path d="M3.35733 7.38343C3.21468 7.38343 3.09802 7.20431 3.09802 6.98344C3.09802 6.76256 3.21218 6.58344 3.35483 6.58344H3.35737C3.50002 6.58344 3.61543 6.76256 3.61543 6.98344C3.61543 7.20431 3.49999 7.38343 3.35733 7.38343Z" fill="white"/>
<path d="M5.6774 1.78341C5.53475 1.78341 5.41809 1.60429 5.41809 1.38341C5.41809 1.16253 5.53225 0.983412 5.6749 0.983412H5.67743C5.82009 0.983412 5.9355 1.16253 5.9355 1.38341C5.9355 1.60429 5.82006 1.78341 5.6774 1.78341Z" fill="#F5F5F5"/>
<path d="M5.6774 4.98344C5.53475 4.98344 5.41809 4.80432 5.41809 4.58344C5.41809 4.36257 5.53225 4.18344 5.6749 4.18344H5.67743C5.82009 4.18344 5.9355 4.36257 5.9355 4.58344C5.9355 4.80432 5.82006 4.98344 5.6774 4.98344Z" fill="#F5F5F5"/>
<path d="M5.6774 8.18343C5.53475 8.18343 5.41809 8.0043 5.41809 7.78342C5.41809 7.56254 5.53225 7.38342 5.6749 7.38342H5.67743C5.82009 7.38342 5.9355 7.56254 5.9355 7.78342C5.9355 8.0043 5.82006 8.18343 5.6774 8.18343Z" fill="#F5F5F5"/>
<path d="M5.6774 3.38342C5.53475 3.38342 5.41809 3.2043 5.41809 2.98343C5.41809 2.76255 5.53225 2.58343 5.6749 2.58343H5.67743C5.82009 2.58343 5.9355 2.76255 5.9355 2.98343C5.93547 3.2043 5.82006 3.38342 5.6774 3.38342Z" fill="white"/>
<path d="M5.6774 6.5834C5.53475 6.5834 5.41809 6.40427 5.41809 6.1834C5.41809 5.96252 5.53225 5.7834 5.6749 5.7834H5.67743C5.82009 5.7834 5.9355 5.96252 5.9355 6.1834C5.9355 6.40427 5.82006 6.5834 5.6774 6.5834Z" fill="white"/>
<path d="M4.90323 2.58339C4.76058 2.58339 4.64392 2.40426 4.64392 2.18339C4.64392 1.96251 4.75808 1.78339 4.90073 1.78339H4.90326C5.04592 1.78339 5.16133 1.96251 5.16133 2.18339C5.1613 2.40431 5.04589 2.58339 4.90323 2.58339Z" fill="white"/>
<path d="M4.90323 5.78342C4.76058 5.78342 4.64392 5.60429 4.64392 5.38342C4.64392 5.16254 4.75808 4.98342 4.90073 4.98342H4.90326C5.04592 4.98342 5.16133 5.16254 5.16133 5.38342C5.16133 5.60429 5.04589 5.78342 4.90323 5.78342Z" fill="white"/>
<path d="M4.90323 4.1834C4.76058 4.1834 4.64392 4.00428 4.64392 3.7834C4.64392 3.56253 4.75808 3.38341 4.90073 3.38341H4.90326C5.04592 3.38341 5.16133 3.56253 5.16133 3.7834C5.16133 4.00428 5.04589 4.1834 4.90323 4.1834Z" fill="#F5F5F5"/>
<path d="M4.90323 7.38343C4.76058 7.38343 4.64392 7.20431 4.64392 6.98344C4.64392 6.76256 4.75808 6.58344 4.90073 6.58344H4.90326C5.04592 6.58344 5.16133 6.76256 5.16133 6.98344C5.16133 7.20431 5.04589 7.38343 4.90323 7.38343Z" fill="#F5F5F5"/>
<path d="M6.45414 2.58339C6.31148 2.58339 6.19482 2.40426 6.19482 2.18339C6.19482 1.96251 6.30898 1.78339 6.45164 1.78339H6.45417C6.59682 1.78339 6.71223 1.96251 6.71223 2.18339C6.7122 2.40431 6.59679 2.58339 6.45414 2.58339Z" fill="#F5F5F5"/>
<path d="M6.45414 5.78342C6.31148 5.78342 6.19482 5.60429 6.19482 5.38342C6.19482 5.16254 6.30898 4.98342 6.45164 4.98342H6.45417C6.59682 4.98342 6.71223 5.16254 6.71223 5.38342C6.71223 5.60429 6.59679 5.78342 6.45414 5.78342Z" fill="#F5F5F5"/>
<path d="M6.45414 4.1834C6.31148 4.1834 6.19482 4.00428 6.19482 3.7834C6.19482 3.56253 6.30898 3.38341 6.45164 3.38341H6.45417C6.59682 3.38341 6.71223 3.56253 6.71223 3.7834C6.71223 4.00428 6.59679 4.1834 6.45414 4.1834Z" fill="white"/>
<path d="M6.45414 7.38343C6.31148 7.38343 6.19482 7.20431 6.19482 6.98344C6.19482 6.76256 6.30898 6.58344 6.45164 6.58344H6.45417C6.59682 6.58344 6.71223 6.76256 6.71223 6.98344C6.71223 7.20431 6.59679 7.38343 6.45414 7.38343Z" fill="white"/>
<path d="M0.09375 13.0537L0.633125 13.7143H16V11.4286H0.516125L0.09375 13.0537Z" fill="#F5F5F5"/>
<path d="M0 11.4286V13.7144H0.633125C0.558094 13.4324 0.516156 13.1239 0.516156 12.8V11.4286H0L0 11.4286Z" fill="#E1E1E6"/>
</g>
</g>
<defs>
<clipPath id="clip0_2490_3296">
<rect width="16" height="16" rx="8" fill="white"/>
</clipPath>
<clipPath id="clip1_2490_3296">
<rect width="16" height="16" rx="1" fill="white"/>
</clipPath>
</defs>
</svg>
