<svg width="18" height="18" viewBox="0 0 18 18" fill="none" xmlns="http://www.w3.org/2000/svg">
<path fill-rule="evenodd" clip-rule="evenodd" d="M9.00001 2.33335C5.31811 2.33335 2.33334 5.31812 2.33334 9.00002C2.33334 12.6819 5.31811 15.6667 9.00001 15.6667C12.6819 15.6667 15.6667 12.6819 15.6667 9.00002C15.6667 5.31812 12.6819 2.33335 9.00001 2.33335ZM0.666672 9.00002C0.666672 4.39765 4.39763 0.666687 9.00001 0.666687C13.6024 0.666687 17.3333 4.39765 17.3333 9.00002C17.3333 13.6024 13.6024 17.3334 9.00001 17.3334C4.39763 17.3334 0.666672 13.6024 0.666672 9.00002ZM9.00001 5.66669C9.46024 5.66669 9.83334 6.03978 9.83334 6.50002V8.16669H11.5C11.9602 8.16669 12.3333 8.53978 12.3333 9.00002C12.3333 9.46026 11.9602 9.83335 11.5 9.83335H9.83334V11.5C9.83334 11.9603 9.46024 12.3334 9.00001 12.3334C8.53977 12.3334 8.16667 11.9603 8.16667 11.5V9.83335H6.50001C6.03977 9.83335 5.66667 9.46026 5.66667 9.00002C5.66667 8.53978 6.03977 8.16669 6.50001 8.16669H8.16667V6.50002C8.16667 6.03978 8.53977 5.66669 9.00001 5.66669Z" fill="white"/>
</svg>
